<mxfile host="app.diagrams.net" modified="2022-12-03T10:08:41.191Z" agent="5.0 (Windows NT 10.0; Win64; x64) AppleWebKit/537.36 (KHTML, like Gecko) Chrome/107.0.0.0 Safari/537.36" version="20.6.0" etag="NZeLm9AuhPFsnGhNWWfe" type="github">
  <diagram id="wg8Q2fmshLPbi6pWWXkw" name="Page-1">
    <mxGraphModel dx="1021" dy="529" grid="1" gridSize="10" guides="1" tooltips="1" connect="1" arrows="1" fold="1" page="1" pageScale="1" pageWidth="850" pageHeight="1100" math="0" shadow="0">
      <root>
        <mxCell id="0" />
        <mxCell id="1" parent="0" />
        <mxCell id="CW-l6TLwiVdttoIs8dB7-21" style="edgeStyle=orthogonalEdgeStyle;rounded=0;orthogonalLoop=1;jettySize=auto;html=1;entryX=0;entryY=0.5;entryDx=0;entryDy=0;" edge="1" parent="1" source="CW-l6TLwiVdttoIs8dB7-1" target="CW-l6TLwiVdttoIs8dB7-2">
          <mxGeometry relative="1" as="geometry">
            <mxPoint x="260" y="270" as="targetPoint" />
          </mxGeometry>
        </mxCell>
        <mxCell id="CW-l6TLwiVdttoIs8dB7-30" value="1" style="edgeLabel;html=1;align=center;verticalAlign=middle;resizable=0;points=[];" vertex="1" connectable="0" parent="CW-l6TLwiVdttoIs8dB7-21">
          <mxGeometry x="0.1332" relative="1" as="geometry">
            <mxPoint as="offset" />
          </mxGeometry>
        </mxCell>
        <mxCell id="CW-l6TLwiVdttoIs8dB7-1" value="Client" style="ellipse;whiteSpace=wrap;html=1;aspect=fixed;" vertex="1" parent="1">
          <mxGeometry x="130" y="230" width="80" height="80" as="geometry" />
        </mxCell>
        <mxCell id="CW-l6TLwiVdttoIs8dB7-22" style="edgeStyle=orthogonalEdgeStyle;rounded=0;orthogonalLoop=1;jettySize=auto;html=1;entryX=0;entryY=0.5;entryDx=0;entryDy=0;" edge="1" parent="1" source="CW-l6TLwiVdttoIs8dB7-2" target="CW-l6TLwiVdttoIs8dB7-3">
          <mxGeometry relative="1" as="geometry" />
        </mxCell>
        <mxCell id="CW-l6TLwiVdttoIs8dB7-31" value="2" style="edgeLabel;html=1;align=center;verticalAlign=middle;resizable=0;points=[];" vertex="1" connectable="0" parent="CW-l6TLwiVdttoIs8dB7-22">
          <mxGeometry x="-0.1805" y="1" relative="1" as="geometry">
            <mxPoint as="offset" />
          </mxGeometry>
        </mxCell>
        <mxCell id="CW-l6TLwiVdttoIs8dB7-2" value="Dispatcher" style="rounded=0;whiteSpace=wrap;html=1;" vertex="1" parent="1">
          <mxGeometry x="305" y="240" width="120" height="60" as="geometry" />
        </mxCell>
        <mxCell id="CW-l6TLwiVdttoIs8dB7-23" style="edgeStyle=orthogonalEdgeStyle;rounded=0;orthogonalLoop=1;jettySize=auto;html=1;entryX=0.229;entryY=1;entryDx=0;entryDy=0;entryPerimeter=0;" edge="1" parent="1" source="CW-l6TLwiVdttoIs8dB7-3" target="CW-l6TLwiVdttoIs8dB7-11">
          <mxGeometry relative="1" as="geometry">
            <mxPoint x="540" y="160" as="targetPoint" />
            <Array as="points">
              <mxPoint x="540" y="210" />
              <mxPoint x="540" y="210" />
            </Array>
          </mxGeometry>
        </mxCell>
        <mxCell id="CW-l6TLwiVdttoIs8dB7-32" value="3" style="edgeLabel;html=1;align=center;verticalAlign=middle;resizable=0;points=[];" vertex="1" connectable="0" parent="CW-l6TLwiVdttoIs8dB7-23">
          <mxGeometry x="0.1983" y="-1" relative="1" as="geometry">
            <mxPoint x="-2" y="4" as="offset" />
          </mxGeometry>
        </mxCell>
        <mxCell id="CW-l6TLwiVdttoIs8dB7-3" value="Controller" style="rounded=0;whiteSpace=wrap;html=1;" vertex="1" parent="1">
          <mxGeometry x="490" y="240" width="120" height="60" as="geometry" />
        </mxCell>
        <mxCell id="CW-l6TLwiVdttoIs8dB7-12" value="" style="group" vertex="1" connectable="0" parent="1">
          <mxGeometry x="500" y="50" width="100" height="100" as="geometry" />
        </mxCell>
        <mxCell id="CW-l6TLwiVdttoIs8dB7-7" value="" style="shape=cylinder3;whiteSpace=wrap;html=1;boundedLbl=1;backgroundOutline=1;size=15;strokeColor=default;fillColor=default;gradientColor=none;" vertex="1" parent="CW-l6TLwiVdttoIs8dB7-12">
          <mxGeometry width="77.77777777777779" height="77.77777777777779" as="geometry" />
        </mxCell>
        <mxCell id="CW-l6TLwiVdttoIs8dB7-10" value="" style="shape=cylinder3;whiteSpace=wrap;html=1;boundedLbl=1;backgroundOutline=1;size=15;strokeColor=default;fillColor=default;gradientColor=none;" vertex="1" parent="CW-l6TLwiVdttoIs8dB7-12">
          <mxGeometry x="11.11111111111111" y="11.11111111111111" width="77.77777777777779" height="77.77777777777779" as="geometry" />
        </mxCell>
        <mxCell id="CW-l6TLwiVdttoIs8dB7-11" value="" style="shape=cylinder3;whiteSpace=wrap;html=1;boundedLbl=1;backgroundOutline=1;size=15;strokeColor=default;fillColor=default;gradientColor=none;" vertex="1" parent="CW-l6TLwiVdttoIs8dB7-12">
          <mxGeometry x="22.22222222222222" y="22.22222222222222" width="77.77777777777779" height="77.77777777777779" as="geometry" />
        </mxCell>
        <mxCell id="CW-l6TLwiVdttoIs8dB7-13" value="Model" style="text;html=1;strokeColor=none;fillColor=none;align=center;verticalAlign=middle;whiteSpace=wrap;rounded=0;" vertex="1" parent="CW-l6TLwiVdttoIs8dB7-12">
          <mxGeometry x="27.77777777777778" y="55.55555555555556" width="66.66666666666667" height="33.333333333333336" as="geometry" />
        </mxCell>
        <mxCell id="CW-l6TLwiVdttoIs8dB7-17" value="" style="group" vertex="1" connectable="0" parent="1">
          <mxGeometry x="310" y="40" width="95" height="110" as="geometry" />
        </mxCell>
        <mxCell id="CW-l6TLwiVdttoIs8dB7-16" value="Note" style="shape=note;size=20;whiteSpace=wrap;html=1;strokeColor=default;fillColor=default;gradientColor=none;" vertex="1" parent="CW-l6TLwiVdttoIs8dB7-17">
          <mxGeometry x="20" y="20" width="75" height="90" as="geometry" />
        </mxCell>
        <mxCell id="CW-l6TLwiVdttoIs8dB7-15" value="Note" style="shape=note;size=20;whiteSpace=wrap;html=1;strokeColor=default;fillColor=default;gradientColor=none;" vertex="1" parent="CW-l6TLwiVdttoIs8dB7-17">
          <mxGeometry x="10" y="10" width="75" height="90" as="geometry" />
        </mxCell>
        <mxCell id="CW-l6TLwiVdttoIs8dB7-14" value="View" style="shape=note;size=20;whiteSpace=wrap;html=1;strokeColor=default;fillColor=default;gradientColor=none;" vertex="1" parent="CW-l6TLwiVdttoIs8dB7-17">
          <mxGeometry width="75" height="90" as="geometry" />
        </mxCell>
        <mxCell id="CW-l6TLwiVdttoIs8dB7-25" style="edgeStyle=orthogonalEdgeStyle;rounded=0;orthogonalLoop=1;jettySize=auto;html=1;entryX=0.592;entryY=-0.067;entryDx=0;entryDy=0;entryPerimeter=0;" edge="1" parent="1" source="CW-l6TLwiVdttoIs8dB7-11" target="CW-l6TLwiVdttoIs8dB7-3">
          <mxGeometry relative="1" as="geometry">
            <Array as="points">
              <mxPoint x="561" y="193" />
              <mxPoint x="561" y="193" />
            </Array>
          </mxGeometry>
        </mxCell>
        <mxCell id="CW-l6TLwiVdttoIs8dB7-33" value="4" style="edgeLabel;html=1;align=center;verticalAlign=middle;resizable=0;points=[];" vertex="1" connectable="0" parent="CW-l6TLwiVdttoIs8dB7-25">
          <mxGeometry x="-0.2941" relative="1" as="geometry">
            <mxPoint y="10" as="offset" />
          </mxGeometry>
        </mxCell>
        <mxCell id="CW-l6TLwiVdttoIs8dB7-28" value="" style="endArrow=classic;html=1;rounded=0;exitX=0.25;exitY=0;exitDx=0;exitDy=0;entryX=0;entryY=0;entryDx=75;entryDy=55;entryPerimeter=0;" edge="1" parent="1" source="CW-l6TLwiVdttoIs8dB7-3" target="CW-l6TLwiVdttoIs8dB7-16">
          <mxGeometry width="50" height="50" relative="1" as="geometry">
            <mxPoint x="400" y="260" as="sourcePoint" />
            <mxPoint x="450" y="210" as="targetPoint" />
          </mxGeometry>
        </mxCell>
        <mxCell id="CW-l6TLwiVdttoIs8dB7-37" value="5" style="edgeLabel;html=1;align=center;verticalAlign=middle;resizable=0;points=[];" vertex="1" connectable="0" parent="CW-l6TLwiVdttoIs8dB7-28">
          <mxGeometry x="-0.1315" relative="1" as="geometry">
            <mxPoint x="-10" y="-13" as="offset" />
          </mxGeometry>
        </mxCell>
        <mxCell id="CW-l6TLwiVdttoIs8dB7-29" value="" style="endArrow=classic;html=1;rounded=0;" edge="1" parent="1" target="CW-l6TLwiVdttoIs8dB7-1">
          <mxGeometry width="50" height="50" relative="1" as="geometry">
            <mxPoint x="310" y="120" as="sourcePoint" />
            <mxPoint x="415" y="160" as="targetPoint" />
          </mxGeometry>
        </mxCell>
        <mxCell id="CW-l6TLwiVdttoIs8dB7-36" value="6" style="edgeLabel;html=1;align=center;verticalAlign=middle;resizable=0;points=[];" vertex="1" connectable="0" parent="CW-l6TLwiVdttoIs8dB7-29">
          <mxGeometry x="-0.1221" relative="1" as="geometry">
            <mxPoint as="offset" />
          </mxGeometry>
        </mxCell>
      </root>
    </mxGraphModel>
  </diagram>
</mxfile>
